<svg width="375" height="350" viewBox="0 0 375 350" fill="none" xmlns="http://www.w3.org/2000/svg">
<path fill-rule="evenodd" clip-rule="evenodd" d="M186.418 337.733C168.057 334.451 152.191 323.255 133.64 321.323C104.431 318.283 61.6928 348.531 46.667 323.185C30.2989 295.575 89.2261 266.471 82.4976 235.055C75.9011 204.254 18.2844 202.988 14.2336 171.747C10.8809 145.889 44.3622 128.313 67.0038 115.561C87.2949 104.133 111.654 104.26 134.911 103.782C152.574 103.419 169.117 116.701 186.418 113.106C209.893 108.227 225.354 79.7067 249.324 80.0023C272.009 80.282 306.755 91.8041 307.04 114.593C307.461 148.173 238.678 165.165 250.784 196.469C265.667 234.956 339.169 215.256 359.781 250.977C373.031 273.939 342.4 303.001 321.953 319.808C302.064 336.155 274.567 338.591 249.089 341.961C228.067 344.742 207.293 341.465 186.418 337.733Z" fill="url(#paint0_linear_255_4390)"/>
<mask id="mask0_255_4390" style="mask-type:alpha" maskUnits="userSpaceOnUse" x="0" y="0" width="375" height="350">
<rect width="375" height="350" rx="30" fill="#C4C4C4"/>
</mask>
<g mask="url(#mask0_255_4390)">
<path d="M137.984 171.544C137.984 171.544 144.012 113.815 142.651 92.732C141.953 81.9181 137.513 79.4716 130.726 80.0883C123.939 80.7051 85.1289 105.016 85.1289 105.016L90.6595 120.743L122.936 108.778C122.936 108.778 119.647 131.239 118.888 135.505C118.129 139.771 116.542 145.517 115.277 150.667C114.658 153.206 113.794 156.495 113.794 158.089C113.811 161.851 137.984 171.544 137.984 171.544Z" fill="#FFEDE5"/>
<path d="M122.935 108.778C127.437 107.75 131.929 104.615 133.342 102.117C132.617 104.926 131.014 107.306 128.859 108.778C126.807 110.337 124.634 111.662 122.368 112.736L122.935 108.778Z" fill="#F28F8F"/>
<path d="M199.083 170.516C198.411 167.576 194.032 164.482 180.982 161.902C167.931 159.322 156.059 161.902 155.989 163.722C155.919 165.541 159.208 177.702 174.256 179.922C189.304 182.142 200.461 176.972 199.083 170.516Z" fill="#263238"/>
<path d="M159.827 195.506C159.827 195.506 151.322 130.498 152.543 117.228C153.808 103.515 158.222 97.152 165.628 96.2577C175.302 102.878 180.458 118.698 186.642 134.292C192.827 149.885 199.527 183.335 199.885 199.319C200.242 215.304 189.512 226.693 177.361 228.77C165.209 230.846 159.827 195.506 159.827 195.506Z" fill="#FFEDE5"/>
<path d="M173.191 144.612C169.266 140.894 166.614 135.63 165.724 129.789L177.893 124.794L186.102 132.842L186.346 133.469C186.451 133.737 186.556 134.004 186.669 134.271C186.904 134.867 187.14 135.494 187.376 136.132C187.437 136.317 187.506 136.502 187.576 136.697C187.759 137.191 187.934 137.725 188.117 138.239L188.3 138.774C188.544 139.483 188.78 140.213 189.024 140.963C189.26 141.714 189.495 142.484 189.731 143.266C189.783 143.44 189.836 143.605 189.879 143.769L190.507 145.928C190.507 146.031 190.568 146.144 190.603 146.247C191.092 147.994 191.58 149.803 192.051 151.654L192.13 151.952C192.365 152.867 192.592 153.792 192.819 154.727C192.819 154.727 181.513 152.815 173.191 144.612Z" fill="#F28F8F"/>
<path d="M163.063 96.8132C167.687 94.6648 173.313 99.6915 176.288 101.953C182.333 106.517 219.294 140.46 227.913 148.416C229.78 149.752 231.681 151.037 233.618 152.25L223.464 170.959C222.63 168.27 221.325 165.818 219.635 163.763C210.423 156.012 192.592 151.788 181.112 146.525C172.179 142.413 170.313 140.11 167.303 134.097C165 129.337 156.687 100.37 163.063 96.8132Z" fill="#FFEDE5"/>
<path d="M159.644 195.865L155.989 163.722C155.989 163.722 159.269 172.583 176.157 174.916C193.046 177.249 199.51 173.888 199.082 170.516C199.082 170.516 203.496 190.643 201.787 203.719C200.077 216.794 183.127 230.723 183.127 230.723L159.644 195.865Z" fill="#37474F"/>
<path opacity="0.15" d="M167.12 200.265C165.567 200.265 164.11 200.378 162.758 200.481L181.531 228.307H185.892C190.76 223.753 200.522 213.515 201.795 203.75C203.051 194.159 201.01 180.796 199.832 174.34C200.504 181.762 186.416 199.782 167.12 200.265Z" fill="black"/>
<path d="M251.667 125.05C245.56 123.714 242.725 128.905 240.475 133.192C238.224 137.478 234.455 145.342 232.772 146.668C231.088 147.994 230.155 146.668 227.756 148.796C225.357 150.924 223.604 154.964 224.345 156.434L226.09 160.011C225.084 159.881 224.066 160.032 223.119 160.452C222.172 160.871 221.322 161.548 220.638 162.426C218.021 165.51 219.382 166.024 220.856 167.772C222.33 169.519 225.793 177.414 229.265 179.562C229.265 179.562 238.617 176.263 245.395 163.763C252.173 151.263 251.667 125.05 251.667 125.05Z" fill="url(#paint1_linear_255_4390)"/>
<path d="M231.193 181.217C230.835 181.142 230.494 180.98 230.193 180.742C229.891 180.503 229.635 180.193 229.44 179.832C229.246 179.47 229.117 179.065 229.063 178.641C229.009 178.218 229.03 177.786 229.125 177.373C230.159 173.518 231.711 169.884 233.722 166.61C236.069 162.683 240.466 155.303 241.207 151.263C241.949 147.223 243.545 135.906 246.153 131.167C248.761 126.428 251.44 123.694 254.877 125.225C258.314 126.757 247.462 157.091 244.278 162.231C241.094 167.371 231.193 181.217 231.193 181.217Z" fill="#37474F"/>
<path d="M233.199 180.559C241.792 175.163 244.618 169.92 247.157 163.084C249.695 156.248 255.627 149.947 257.162 143.81C258.698 137.674 258.855 121.936 252.949 125.749C247.043 129.563 245.813 143.636 243.222 151.767C240.631 159.898 224.772 185.874 233.199 180.559Z" fill="#263238"/>
<path d="M181.557 197.181C185.483 196.472 193.029 198.384 199.877 209.65C207.23 221.749 208.6 242.863 203.985 244.6C203.985 244.6 193.29 243.12 185.945 238.587C178.6 234.053 166.257 203.431 181.557 197.181Z" fill="#263238"/>
<path d="M306.999 297.919C295.606 292.646 286.281 283.58 278.212 273.444C271.722 263.062 243.912 218.603 239.088 212.343C237.343 210.123 233.208 204.408 227.477 202.979C207.186 197.839 169.615 198.6 169.615 198.6L155.169 195.732L126.382 227.66C130.351 232.645 135.332 236.993 142.616 241.465C149.9 245.936 157.777 249.185 168.402 248.126C189.67 246.008 202.423 238.926 213.807 235.791C217.105 234.886 220.524 234.053 223.115 240.427C225.706 246.8 225.915 249.997 233.583 256.771C243.414 265.467 259.649 275.192 266.732 285.553C267.899 288.093 268.594 290.896 268.773 293.777C269.445 304.704 277.226 302.555 283.498 307.305C286.918 309.895 289.456 313.04 293.574 314.11C297.323 315.018 301.196 314.934 304.914 313.863C308.264 312.927 313.062 310.08 314.71 306.235C316.874 301.116 310.279 299.431 306.999 297.919Z" fill="#FFEDE5"/>
<path d="M306.999 297.919C295.606 292.646 286.281 283.58 278.212 273.444C271.722 263.062 243.912 218.603 239.088 212.343C237.343 210.123 233.208 204.408 227.477 202.979C207.186 197.839 169.615 198.6 169.615 198.6L155.169 195.732L126.382 227.66C130.351 232.645 135.332 236.993 142.616 241.465C149.9 245.936 157.777 249.185 168.402 248.126C189.67 246.008 202.423 238.926 213.807 235.791C217.105 234.886 220.524 234.053 223.115 240.427C225.706 246.8 225.915 249.997 233.583 256.771C243.414 265.467 259.649 275.192 266.732 285.553C267.899 288.093 268.594 290.896 268.773 293.777C269.445 304.704 277.226 302.555 283.498 307.305C286.918 309.895 289.456 313.04 293.574 314.11C297.323 315.018 301.196 314.934 304.914 313.863C308.264 312.927 313.062 310.08 314.71 306.235C316.874 301.116 310.279 299.431 306.999 297.919Z" fill="#FFEDE5"/>
<path d="M232.929 251.59C230.769 248.769 229.129 245.451 228.114 241.845C227.333 238.831 226.329 235.904 225.113 233.097C221.571 225.902 198.07 235.081 187.663 238.843C187.079 239.871 184.636 242.955 183.764 245.525C196.369 242.493 205.441 238.083 213.79 235.78C217.087 234.876 220.507 234.043 223.098 240.416C225.688 246.789 225.898 249.986 233.566 256.761C237.561 260.297 242.612 263.956 247.68 267.852C242.019 262.671 237.753 257.48 232.929 251.59Z" fill="#F28F8F"/>
<path d="M157.402 195.732C157.402 195.732 178.05 196.924 181.557 197.222C181.557 197.222 173.784 199.689 183.24 222.211C192.696 244.734 203.993 244.61 203.993 244.61C189.164 250.202 181.461 256.483 162.557 253.862C140.025 250.028 126.364 230.147 126.364 230.147L157.402 195.732Z" fill="#455A64"/>
<path opacity="0.15" d="M203.941 244.61C203.77 244.623 203.598 244.623 203.426 244.61V244.61C201.743 244.384 196.735 243.089 191.126 236.048C186.674 237.447 182.156 238.542 177.596 239.327C160.743 242.236 148.103 238.731 129.269 226.899L126.364 230.127C133.838 240.059 143.427 247.462 154.139 251.57V251.57C154.793 251.806 155.465 252.043 156.146 252.258C156.782 252.454 157.428 252.649 158.073 252.824L158.248 252.875C158.841 253.04 159.452 253.184 160.062 253.327L160.385 253.399C161.1 253.564 161.816 253.708 162.549 253.831C163.735 253.996 164.869 254.119 165.968 254.222C167.067 254.325 168.123 254.376 169.152 254.417H170.661C171.159 254.417 171.647 254.417 172.127 254.417C173.566 254.417 174.936 254.283 176.253 254.129C177.125 254.026 177.98 253.903 178.818 253.759C180.834 253.399 182.832 252.905 184.802 252.279C185.57 252.032 186.328 251.775 187.079 251.498C188.972 250.819 190.838 250.059 192.758 249.236L195.087 248.208C197.843 247.016 200.739 245.762 203.985 244.539L203.941 244.61Z" fill="black"/>
<path d="M88.3562 165.068C79.9644 168.502 72.0348 174.505 78.7605 192.073C88.3562 217.442 131.851 245.608 154.183 251.59C142.842 231.371 152.281 209.938 159.687 195.866L157.69 178.678C157.69 178.678 150.99 174.885 139.894 164.781C128.798 154.676 124.192 151.931 107.679 157.852C96.3294 161.923 88.3562 165.068 88.3562 165.068Z" fill="url(#paint2_linear_255_4390)"/>
<path opacity="0.05" d="M122.352 222.407C99.5138 206.988 92.3344 193.254 83.3755 180.066L77.5134 188.495C77.6704 189.04 77.8449 189.595 78.0368 190.171C78.0335 190.201 78.0335 190.232 78.0368 190.263C78.2287 190.849 78.4468 191.456 78.6824 192.072C82.9394 203.174 93.6255 214.81 106.187 224.936C107.932 226.375 109.816 227.783 111.665 229.15C112.599 229.839 113.532 230.517 114.474 231.206C120.863 235.713 127.475 239.764 134.276 243.336C140.657 246.807 147.302 249.56 154.122 251.559C151.638 247.209 149.978 242.28 149.254 237.106C141.316 234.29 132.802 229.469 122.352 222.407Z" fill="black"/>
<path d="M82.058 168.512C82.058 168.512 53.8903 150.769 49.4326 148.374L74.0849 131.321L68.8509 115.316C68.8509 115.316 32.2127 130.663 25.234 135.073C21.5789 137.406 20 139.328 20 142.638C20 148.158 24.4576 155.313 30.6338 161.511C43.7625 174.7 61.5756 186.984 78.9264 198.209C82.9042 201.683 87.0391 206.052 87.0391 206.052C91.6014 208.745 98.2399 183.89 82.058 168.512Z" fill="#FFEDE5"/>
<path d="M108.429 106.845C106.67 102.032 103.36 98.2397 99.2271 96.3023C95.0947 94.3649 90.4784 94.4413 86.3938 96.5146C82.3092 98.5879 79.0908 102.488 77.4467 107.358C75.8025 112.227 75.8673 117.667 77.6268 122.48C77.7402 122.809 77.8798 123.107 78.0106 123.416L73.7536 134.333L67.4641 120.671C67.4667 119.595 67.1298 118.556 66.5188 117.757C65.9078 116.957 65.0664 116.453 64.1579 116.344C63.6972 116.297 63.2334 116.362 62.7945 116.533C62.3556 116.705 61.9509 116.98 61.605 117.341C61.259 117.703 60.9791 118.143 60.7821 118.636C60.5851 119.129 60.4753 119.664 60.4592 120.209L65.2658 120.702C64.2111 121.526 63.4025 122.72 62.9541 124.115C61.8114 127.63 65.7892 134.795 71.1192 141.086C71.1192 141.086 78.6649 153.637 80.4968 155.395C81.6772 156.454 83.1569 156.939 84.6317 156.752L85.0853 132.081C88.1492 134.03 91.6521 134.806 95.1073 134.301C98.5624 133.795 101.798 132.035 104.365 129.263C106.932 126.491 108.703 122.846 109.431 118.834C110.159 114.822 109.809 110.643 108.429 106.876V106.845Z" fill="#263238"/>
<path d="M77.4604 138.589C76.7626 139.73 74.6341 138.28 72.9505 137.437C71.2668 136.594 66.7569 136.563 66.5824 142.227C66.4079 147.891 72.3136 152.507 75.707 152.085C81.5517 151.376 80.9411 147.09 80.9411 147.09L89.5248 169.488C99.4608 175.903 117.954 165.808 106.858 159.466L104.407 152.815C106.528 152.144 108.577 151.188 110.513 149.968C114.003 147.357 115.145 142.628 114.526 137.211C113.54 128.525 111.909 121.905 104.808 107.401C96.9572 91.5499 80.3828 99.7529 73.91 110.885C67.4373 122.018 77.4604 138.589 77.4604 138.589Z" fill="#FFEDE5"/>
<path d="M78.1504 140.49C77.6793 140.747 74.5826 138.136 72.9164 137.468C70.657 136.553 66.9845 119.705 66.9845 119.705C66.9845 119.705 63.9837 116.57 65.6324 110.916C66.9845 106.28 71.9743 103.176 75.4287 101.12C81.6572 97.409 88.6272 93.1842 91.6804 85.413C91.9246 84.7962 92.2735 84.0972 92.8493 84.0869C93.0281 84.1057 93.202 84.1663 93.3608 84.2651C93.5195 84.364 93.66 84.4991 93.774 84.6626C95.2121 86.5651 96.0231 89.0126 96.0595 91.5601C96.0595 91.7965 96.1205 92.0946 96.3212 92.1665C96.5218 92.2385 96.6701 92.0432 96.7922 91.8684C97.4257 90.9543 97.908 89.9083 98.2142 88.7846C98.6329 87.253 100.831 91.1489 100.988 91.6834C101.503 93.3745 101.724 95.1699 101.64 96.9636C101.556 98.7573 101.169 100.513 100.5 102.127C99.1388 105.345 96.3386 107.339 93.774 109.097C88.0602 113.023 78.29 116.765 76.9291 117.207C75.0798 117.814 75.4374 120.003 76.4842 125.934C77.4438 131.177 79.7293 139.616 78.1504 140.49Z" fill="#263238"/>
<path d="M104.408 152.815C104.408 152.815 94.2012 155.354 90.5723 155.036C88.4434 154.854 86.4115 153.914 84.7451 152.343C85.9295 154.155 87.4133 155.665 89.1068 156.783C92.4566 158.942 105.367 155.498 105.367 155.498L104.408 152.815Z" fill="#F28F8F"/>
<path d="M88.4606 121.514L85.4248 125.421C84.9875 124.919 84.7315 124.238 84.7104 123.52C84.6893 122.802 84.9046 122.101 85.3114 121.566C85.5133 121.315 85.7558 121.114 86.0247 120.975C86.2935 120.836 86.5833 120.762 86.8768 120.757C87.1703 120.752 87.4617 120.817 87.7337 120.947C88.0057 121.077 88.2528 121.27 88.4606 121.514V121.514Z" fill="#263238"/>
<path d="M98.2402 141.467L102.733 141.22C102.76 141.568 102.728 141.92 102.637 142.253C102.547 142.586 102.4 142.894 102.207 143.159C102.013 143.424 101.776 143.64 101.509 143.794C101.243 143.949 100.953 144.038 100.657 144.057C100.048 144.077 99.4559 143.819 99.0054 143.336C98.5548 142.853 98.2806 142.183 98.2402 141.467V141.467Z" fill="#F28F8F"/>
<path d="M106.937 115.316L102.575 114C102.635 113.658 102.752 113.333 102.921 113.046C103.09 112.759 103.307 112.515 103.558 112.33C103.809 112.144 104.09 112.021 104.383 111.967C104.676 111.913 104.975 111.93 105.262 112.016C105.845 112.211 106.343 112.662 106.655 113.275C106.966 113.888 107.067 114.618 106.937 115.316V115.316Z" fill="#263238"/>
<path d="M97.6292 123.365L100.604 135.978L105.838 132.236L97.6292 123.365Z" fill="#F28F8F"/>
<path d="M89.3506 129.019C89.3523 129.474 89.4684 129.918 89.6842 130.295C89.8999 130.672 90.2057 130.966 90.5629 131.139C90.9201 131.311 91.3127 131.355 91.6912 131.265C92.0696 131.175 92.417 130.955 92.6894 130.633C92.9618 130.31 93.1471 129.9 93.2217 129.454C93.2964 129.007 93.2572 128.545 93.1091 128.125C92.9609 127.705 92.7105 127.346 92.3893 127.093C92.0682 126.84 91.6907 126.706 91.3046 126.706C91.0473 126.706 90.7925 126.766 90.5548 126.882C90.3172 126.998 90.1014 127.169 89.9198 127.384C89.7383 127.599 89.5945 127.854 89.4968 128.134C89.3992 128.415 89.3495 128.715 89.3506 129.019V129.019Z" fill="#263238"/>
<path d="M103.491 122.491C103.49 122.933 103.599 123.366 103.807 123.734C104.014 124.103 104.31 124.39 104.656 124.56C105.002 124.73 105.383 124.775 105.751 124.69C106.119 124.604 106.457 124.391 106.723 124.079C106.988 123.766 107.168 123.368 107.241 122.934C107.314 122.5 107.276 122.051 107.131 121.643C106.987 121.235 106.743 120.887 106.43 120.642C106.118 120.398 105.751 120.269 105.375 120.271C104.876 120.273 104.399 120.508 104.046 120.924C103.693 121.34 103.494 121.903 103.491 122.491V122.491Z" fill="#263238"/>
<path d="M267.639 296.069C266.898 296.666 268.049 300.428 268.721 301.353C270.12 302.956 271.849 304.103 273.737 304.683C277.171 305.923 280.38 307.903 283.202 310.522C286.681 313.842 290.728 316.237 295.066 317.543C300.212 318.89 306.162 317.173 311.352 313.544C316.795 309.751 316.289 306.112 315.548 303.686L267.639 296.069Z" fill="#37474F"/>
<path d="M279.416 274.955C281.161 277.135 290.652 288.195 297.936 291.012C303.737 293.253 311.282 295.391 314.588 299.554C318.025 303.892 312.905 309.443 305.865 312.629C298.52 315.939 293.53 313.267 288.654 310.378C285.226 308.322 280.175 304.211 277.636 302.556C275.098 300.901 270.396 299.996 268.433 297.539C267.351 296.182 266.575 292.399 266.104 289.079C265.677 285.995 263.949 283.21 264.83 283.045L266.261 284.885C272.891 286.324 279.8 279.108 279.416 274.955Z" fill="url(#paint3_linear_255_4390)"/>
<path d="M49.4327 148.375C45.2523 151.036 40.7377 152.892 36.0598 153.874C36.0598 153.874 43.466 156.064 52.2766 150.05L49.4327 148.375Z" fill="#F28F8F"/>
</g>
<defs>
<linearGradient id="paint0_linear_255_4390" x1="14" y1="80" x2="477.048" y2="127.548" gradientUnits="userSpaceOnUse">
<stop stop-color="#92A3FD"/>
<stop offset="1" stop-color="#9DCEFF"/>
</linearGradient>
<linearGradient id="paint1_linear_255_4390" x1="251.675" y1="179.562" x2="208.17" y2="177.562" gradientUnits="userSpaceOnUse">
<stop stop-color="#92A3FD"/>
<stop offset="1" stop-color="#9DCEFF"/>
</linearGradient>
<linearGradient id="paint2_linear_255_4390" x1="159.687" y1="251.59" x2="48.2945" y2="244.161" gradientUnits="userSpaceOnUse">
<stop stop-color="#92A3FD"/>
<stop offset="1" stop-color="#9DCEFF"/>
</linearGradient>
<linearGradient id="paint3_linear_255_4390" x1="315.685" y1="314.159" x2="247.859" y2="307.318" gradientUnits="userSpaceOnUse">
<stop stop-color="#92A3FD"/>
<stop offset="1" stop-color="#9DCEFF"/>
</linearGradient>
</defs>
</svg>
