<svg width="375" height="406" viewBox="0 0 375 406" fill="none" xmlns="http://www.w3.org/2000/svg">
<g clip-path="url(#clip0_698_3702)">
<path d="M375 236.901C375 236.901 302.933 399.894 191.1 405.5C79.2667 411.105 0 350.512 0 350.512V-37H375V236.901Z" fill="url(#paint0_linear_698_3702)"/>
<path d="M181.926 390.229C174.908 390.24 167.908 389.609 161.049 388.348C149.059 386.255 137.765 381.93 127.98 375.683C118.195 369.436 110.162 361.423 104.462 352.222C99.9379 343.616 96.5775 334.601 94.4446 325.351L93.9526 323.59C86.9231 298.152 78.066 271.252 61.7225 246.949C59.0865 243.038 56.2044 239.127 53.4278 235.365C46.7103 226.847 41.0227 217.774 36.4517 208.285C29.4222 192.013 30.7227 175.831 40.3179 165.173C41.5818 163.517 43.2264 162.095 45.153 160.992C47.0796 159.889 49.2485 159.127 51.5298 158.754C52.9199 158.611 54.3297 158.712 55.6719 159.051C57.0141 159.39 58.26 159.959 59.3325 160.724C60.1692 161.291 60.8553 162.001 61.3459 162.809C61.8366 163.617 62.1206 164.504 62.1794 165.412H59.8949C59.8399 164.779 59.6302 164.162 59.2792 163.602C58.9282 163.042 58.4436 162.55 57.8563 162.157C57.0219 161.569 56.057 161.128 55.0187 160.861C53.9804 160.595 52.8897 160.507 51.811 160.605C47.8513 161.371 44.3905 163.403 42.1455 166.277C33.0424 176.458 31.6013 191.894 38.6308 207.539C43.1631 216.96 48.816 225.964 55.5015 234.409C58.2781 238.201 61.1602 242.112 63.8314 246.053C80.21 270.535 89.1725 297.585 96.202 323.172L96.694 324.933C98.7822 334.03 102.084 342.895 106.535 351.356C112.075 360.298 119.883 368.083 129.395 374.15C138.908 380.216 149.887 384.413 161.541 386.437C185.106 390.404 209.555 387.589 231.027 378.436C239.624 375.181 247.386 370.525 253.873 364.732C260.471 357.947 265.557 350.197 268.88 341.862C274.75 328.785 279.425 314.991 283.642 301.705C290.144 281.881 296.858 261.37 308.245 242.799C311.76 237.365 315.275 232.021 319 226.856C325.976 217.586 331.863 207.756 336.574 197.507C340.616 187.774 340.792 179.593 337.136 173.622C335.853 171.631 334.07 169.903 331.914 168.562C329.758 167.22 327.281 166.298 324.659 165.859C322.829 165.492 320.922 165.492 319.092 165.86C317.261 166.228 315.557 166.953 314.115 167.979L312.604 166.516C314.299 165.284 316.31 164.405 318.476 163.948C320.642 163.492 322.904 163.472 325.081 163.889C328.056 164.411 330.859 165.484 333.289 167.032C335.719 168.581 337.717 170.566 339.14 172.846C343.111 179.414 342.936 187.953 338.683 198.224C333.923 208.601 327.941 218.544 320.828 227.901C317.313 233.066 313.447 238.38 310.284 243.754C299.037 262.146 292.359 282.567 285.892 302.273C281.498 315.648 276.964 329.472 271.024 342.608C267.626 351.174 262.409 359.138 255.63 366.105C248.93 372.084 240.918 376.891 232.046 380.257C216.425 386.717 199.299 390.124 181.926 390.229Z" fill="#AB8DA8"/>
<path d="M207.723 42.5821C209.541 40.1317 210.582 37.324 210.746 34.4313C210.944 33.1321 210.805 31.8118 210.337 30.5634C209.87 29.3151 209.085 28.169 208.04 27.2061C207.161 26.4895 206.072 25.9223 205.263 25.146C204.455 24.3697 204.068 23.5636 203.4 22.8172C202.676 22.0165 201.745 21.3682 200.678 20.9229C199.611 20.4776 198.438 20.2472 197.25 20.2496C194.824 20.2496 192.259 21.205 190.22 20.2496C188.955 19.7122 188.111 18.6373 186.705 18.0402C185.382 17.4682 183.864 17.3096 182.417 17.5924C181.154 17.9669 179.819 18.1389 178.481 18.0999C176.583 17.8611 175.283 16.428 173.595 15.6219C172.728 15.2452 171.775 15.0343 170.801 15.0038C169.828 14.9734 168.858 15.1242 167.961 15.4456C167.063 15.7671 166.26 16.2514 165.606 16.8647C164.952 17.4779 164.464 18.2052 164.176 18.9956C163.947 19.7496 163.947 20.5406 164.176 21.2945C164.563 23.1158 166.039 24.5787 166.144 26.4C166.25 28.2212 164.949 29.8036 166.144 31.4158C167.339 33.0281 169.097 33.0878 169.94 34.6104C171.065 36.6705 169.94 39.3576 170.959 41.5669C171.487 42.9702 171.768 44.9706 173.314 45.8662C175.458 47.1202 180.133 46.0752 182.699 45.8662L192.645 45.1795C197.039 44.8213 202.451 45.1795 206.423 43.3285C206.903 43.1432 207.342 42.8909 207.723 42.5821Z" fill="#3B2645"/>
<path d="M173.983 41.2678C173.634 40.8607 173.177 40.5294 172.648 40.301C172.12 40.0726 171.535 39.9536 170.943 39.9536C170.35 39.9536 169.765 40.0726 169.237 40.301C168.709 40.5294 168.251 40.8607 167.902 41.2678C164.845 44.2534 170.011 50.2247 173.983 50.5829C174.214 47.481 174.214 44.3697 173.983 41.2678Z" fill="#E0855C"/>
<path d="M223.365 91.2783C222.438 96.3074 221.195 101.291 219.639 106.206C219.393 107.132 219.182 108.028 219.042 108.894C218.901 109.759 218.76 110.416 218.585 111.521C218.585 111.73 218.585 111.969 218.585 112.178C218.585 112.894 218.339 113.641 218.233 114.447L213.805 149.528C186.284 155.947 157.569 149.528 157.569 149.528C157.569 149.528 157.569 149.08 157.569 148.214C157.112 144.243 155.706 131.614 154.3 117.373C154.3 117.373 154.3 117.164 154.3 117.074C154.315 116.855 154.315 116.636 154.3 116.417C153.703 110.446 153.141 104.117 152.684 98.0855C151.84 87.606 151.313 77.9326 151.418 71.9315C151.418 69.7221 157.499 69.961 161.646 69.4833C164.704 69.125 167.832 68.8861 170.538 68.7667C173.245 68.6473 175.283 68.5876 176.654 68.5876H178.201C178.201 68.5876 178.552 65.1541 178.552 65.1242L179.501 56.7048C179.962 56.8058 180.433 56.8757 180.907 56.9138C181.777 57.0523 182.658 57.1321 183.543 57.1526C184.703 57.1526 185.792 57.1526 186.812 57.1526L188.323 57.0034H189.202C190.186 56.8541 191.135 56.6749 192.013 56.4659C192.892 56.2569 193.173 56.1674 193.736 56.0181C196.303 55.3192 198.741 54.3139 200.976 53.0325L201.292 52.8533L201.89 52.4652L202.312 52.1965C202.312 52.6145 202.312 52.7936 202.312 52.9728C202.03 54.9433 201.714 57.4512 201.574 59.9293C201.574 61.6609 201.363 63.3627 201.292 64.8257C201.222 66.2886 200.66 68.4084 201.89 69.1548C202.329 69.3643 202.803 69.5154 203.296 69.6027C205.225 69.8614 207.178 69.9714 209.13 69.9311C209.728 69.9311 210.325 69.9311 210.923 69.9311C212.421 69.8569 213.923 69.8569 215.422 69.9311C216.469 69.9285 217.506 70.1042 218.472 70.4478C219.438 70.7914 220.313 71.2958 221.045 71.9315C221.956 73.0517 222.535 74.3422 222.732 75.6934L223.154 78.1416C223.823 82.4988 223.894 86.9072 223.365 91.2783Z" fill="#FFEDE5"/>
<path d="M202.171 51.9865C201.695 54.1231 200.669 56.1438 199.164 57.9032C197.66 59.6625 195.715 61.1169 193.471 62.1618C191.226 63.2066 188.736 63.816 186.181 63.946C183.626 64.0761 181.068 63.7236 178.692 62.9139L179.36 56.7336C183.34 57.3859 187.44 57.2993 191.377 56.4799C195.314 55.6606 198.996 54.1277 202.171 51.9865Z" fill="#E0855C"/>
<path d="M174.686 32.3123C172.648 34.1037 172.472 38.1045 172.332 42.5232C171.804 55.9585 176.549 60.1384 184.598 60.8848C192.647 61.6312 201.117 58.974 202.839 46.5538C203.718 40.3138 204.632 34.6113 201.961 31.8944C198.13 27.8936 180.872 26.8188 174.686 32.3123Z" fill="#FFEDE5"/>
<path d="M201.645 44.7328C201.645 44.7328 204.105 39.1795 208.006 42.1353C211.908 45.0911 206.53 53.4807 200.555 52.8537C200.626 52.8537 199.817 46.6436 201.645 44.7328Z" fill="#FFEDE5"/>
<path d="M206.284 44.6722C205.361 44.917 204.535 45.3712 203.894 45.9858C203.168 46.5009 202.58 47.1423 202.171 47.8668C202.171 48.0758 202.417 48.2251 202.593 48.0758C203.089 47.6591 203.558 47.2206 203.999 46.7621C204.32 47.0624 204.716 47.2972 205.159 47.4488C205.51 47.4488 205.792 47.1801 205.651 46.9412C205.407 46.6251 205.083 46.3597 204.702 46.165C205.358 45.8081 205.981 45.4088 206.565 44.9707C206.576 44.9348 206.577 44.8972 206.568 44.8609C206.558 44.8246 206.539 44.7907 206.512 44.7617C206.485 44.7327 206.45 44.7095 206.41 44.694C206.371 44.6785 206.327 44.671 206.284 44.6722Z" fill="#E0855C"/>
<path d="M179.255 42.2236C179.255 42.2236 177.884 42.6416 178.095 40.5815C178.306 38.5214 179.255 38.9991 179.255 38.9991C179.255 38.9991 180.204 38.9991 180.063 40.6114C179.923 42.2236 179.255 42.2236 179.255 42.2236Z" fill="#3B2645"/>
<path d="M193.068 42.2236C193.068 42.2236 191.732 42.6416 191.943 40.5815C192.154 38.5214 193.068 38.9991 193.068 38.9991C193.068 38.9991 194.017 38.9991 193.876 40.6114C193.736 42.2236 193.068 42.2236 193.068 42.2236Z" fill="#3B2645"/>
<path d="M180.732 35.9839C180.179 35.7183 179.543 35.6071 178.912 35.666C178.281 35.725 177.688 35.9511 177.217 36.3123C177.193 36.3532 177.182 36.3985 177.184 36.444C177.187 36.4895 177.203 36.5338 177.231 36.5726C177.259 36.6114 177.298 36.6435 177.345 36.6659C177.392 36.6883 177.444 36.7002 177.498 36.7005C177.99 36.7005 178.412 36.4616 178.904 36.4318C179.419 36.4109 179.934 36.4821 180.415 36.6408C180.872 36.7602 181.188 36.1631 180.732 35.9839Z" fill="#3B2645"/>
<path d="M195.142 37C194.579 35.8057 192.154 35.7161 191.1 36.4327C191.049 36.4662 191.007 36.5091 190.979 36.5583C190.95 36.6075 190.936 36.6615 190.936 36.7163C190.936 36.7711 190.95 36.8252 190.979 36.8743C191.007 36.9235 191.049 36.9665 191.1 37C191.731 37.0447 192.366 37.0447 192.998 37C193.509 37.0699 194.006 37.2005 194.474 37.3881C194.534 37.4633 194.628 37.515 194.733 37.5318C194.839 37.5486 194.948 37.5291 195.036 37.4777C195.125 37.4262 195.186 37.3469 195.205 37.2574C195.225 37.1678 195.202 37.0752 195.142 37Z" fill="#3B2645"/>
<path d="M182.031 51.8374C184.996 52.1676 188.01 51.7306 190.678 50.5835C190.279 51.3801 189.688 52.0971 188.943 52.6884C188.199 53.2797 187.317 53.7322 186.355 54.0169C183.297 54.7335 182.031 51.8374 182.031 51.8374Z" fill="white"/>
<path d="M164.281 71.9012C172.365 76.708 173.103 86.053 169.167 93.5171C166.496 98.5031 161.54 101.996 158.623 106.714C155.583 111.289 152.053 115.616 148.078 119.641C139.362 129.046 131.067 137.555 127.869 140.78C116.868 151.946 93.7409 166.695 85.411 171.83C83.513 173.024 82.3883 173.681 82.3883 173.681C82.3883 173.681 74.4099 170.128 76.5187 163.56C76.5187 163.56 108.151 135.017 112.826 129.195C117.992 121.628 122.684 113.835 126.885 105.848C132.274 96.9904 137.886 88.2524 143.72 79.6339C146.391 75.663 149.801 70.677 155.67 69.7814C158.039 69.5552 160.43 69.9846 162.489 71.0055C163.111 71.2673 163.71 71.5667 164.281 71.9012Z" fill="#FFEDE5"/>
<path d="M76.5199 163.59C77.3856 163.534 78.2551 163.534 79.1208 163.59C79.1208 163.59 86.7126 167.173 85.4121 171.831C85.4121 171.831 84.6037 172.458 83.3384 173.413C82.0731 174.368 80.7024 175.503 79.0505 176.936C77.3986 178.369 73.6378 182.907 72.021 182.519C71.6442 182.401 71.315 182.194 71.072 181.922L67.8034 178.936C65.9757 177.205 62.9179 174.279 65.2376 171.98C63.5505 172.846 59.614 174.965 57.6809 173.95L56.8726 172.846C56.8726 172.846 62.6719 169.173 65.0619 167.352C68.2861 165.056 72.3158 163.733 76.5199 163.59Z" fill="#FFEDE5"/>
<path d="M173.878 117.641C173.865 117.801 173.865 117.96 173.878 118.12C173.878 118.12 174.194 118.12 174.124 118.12L173.878 117.641Z" fill="#D6BED3"/>
<path d="M186.917 214.405C183.683 236.409 179.887 255.547 179.887 255.547C180.414 260.862 180.66 266.624 180.66 272.536C180.66 284.12 179.747 296.421 178.587 307.258C177.111 321.082 175.072 332.845 174.193 338.757V339.503C175.494 378.704 162.349 383.899 156.198 375.331C150.047 366.762 156.198 341.503 156.198 341.503C156.218 341.275 156.218 341.045 156.198 340.817C153.61 329.086 151.885 317.23 151.031 305.318C148.922 276.477 152.543 256.742 152.121 253.159C144.775 190.461 155.038 155.887 155.038 155.887C156.64 150.863 159.533 146.204 163.509 142.243C170.995 135.376 179.993 137.108 185.651 145.497C186.246 146.358 186.786 147.245 187.268 148.154C189.574 152.973 190.882 158.094 191.134 163.292C191.697 176.279 189.553 196.313 186.917 214.405Z" fill="#FFEDE5"/>
<path d="M223.225 303.795C222.407 315.956 220.693 328.061 218.093 340.04L217.777 341.503C217.777 341.503 223.927 366.851 217.777 375.33C211.626 383.809 198.621 378.853 199.781 340.04C199.781 339.861 199.781 339.682 199.781 339.533C198.797 333.92 196.829 321.768 195.282 307.377C194.087 296.45 193.174 284.209 193.174 272.625C193.174 266.653 193.455 260.921 193.982 255.577C193.982 255.577 190.081 236.439 186.953 214.465C184.317 196.342 182.137 176.308 183.051 163.44C183.314 158.241 184.634 153.12 186.953 148.303C187.413 147.365 187.953 146.457 188.569 145.586C195.072 136.003 205.897 135.167 213.875 145.975C216.161 149.107 217.957 152.48 219.218 156.006C219.218 156.006 229.481 190.49 222.135 253.278C221.608 256.801 225.087 275.849 223.225 303.795Z" fill="#FFEDE5"/>
<path d="M75.6759 182.967C76.3761 183.655 77.2459 184.205 78.2238 184.576C79.2016 184.948 80.2636 185.132 81.3346 185.117C81.8252 185.02 82.2876 184.839 82.6937 184.586C83.0999 184.333 83.4414 184.012 83.6977 183.644C83.9539 183.276 84.1196 182.867 84.1846 182.443C84.2497 182.018 84.2128 181.587 84.0761 181.175C83.6674 180.267 83.0038 179.458 82.143 178.817C76.8358 174.338 71.3879 169.86 65.8698 165.71C64.9477 164.827 63.7153 164.22 62.3551 163.978C61.0901 163.978 59.866 164.359 58.9005 165.053C57.9351 165.747 57.2911 166.71 57.083 167.77C57.083 169.681 59.0161 170.397 60.5977 171.472C65.5886 175.234 70.5796 179.175 75.6759 182.967Z" fill="#3B2645"/>
<path d="M74.9021 177.681C75.1209 177.489 75.2992 177.267 75.4293 177.024C75.5184 176.716 75.5236 176.394 75.4444 176.084C75.3652 175.773 75.2038 175.482 74.9724 175.233C73.672 173.412 71.0008 170.486 68.3647 170.217C67.4944 170.179 66.6277 170.336 65.8507 170.671C65.0738 171.006 64.4137 171.509 63.9362 172.128C63.1474 173.092 62.6458 174.204 62.4744 175.369C62.303 176.534 62.4669 177.716 62.9521 178.816C63.7235 180.793 65.3083 182.468 67.4158 183.533C68.4674 183.911 69.6506 183.93 70.7182 183.585C71.7857 183.24 72.6551 182.558 73.1448 181.682C73.672 180.577 73.4962 179.234 74.3398 178.308C74.4997 178.082 74.6883 177.872 74.9021 177.681Z" fill="#FFEDE5"/>
<path d="M209.412 71.9017C201.293 76.7086 200.555 86.0536 204.526 93.5176C207.162 98.5036 212.118 101.997 215.07 106.714C218.135 111.276 221.663 115.602 225.615 119.642C234.331 129.047 242.661 137.556 245.824 140.78C256.86 152.006 279.987 166.695 288.317 171.831L291.375 173.682C291.375 173.682 299.318 170.129 297.209 163.56C297.209 163.56 265.577 135.018 260.902 129.196C255.722 121.635 251.029 113.841 246.843 105.848C241.431 96.8914 235.842 88.2629 229.973 79.6345C227.302 75.6636 223.927 70.6776 218.023 69.7819C215.654 69.5579 213.264 69.9871 211.204 71.006C210.581 71.2666 209.982 71.566 209.412 71.9017Z" fill="#FFEDE5"/>
<path d="M297.174 163.59C296.297 163.534 295.416 163.534 294.538 163.59C294.538 163.59 286.947 167.173 288.247 171.83C288.247 171.83 289.091 172.457 290.321 173.413C291.551 174.368 292.992 175.503 294.609 176.936C296.225 178.369 300.056 182.907 301.638 182.519C302.01 182.393 302.337 182.187 302.587 181.922L305.821 178.936C307.683 177.204 310.706 174.278 308.422 171.98C310.073 172.845 314.01 174.965 315.978 173.95L316.646 172.845C316.646 172.845 310.847 169.173 308.422 167.352C305.259 165.084 301.308 163.763 297.174 163.59Z" fill="#FFEDE5"/>
<path d="M297.983 182.967C297.283 183.655 296.413 184.205 295.435 184.576C294.457 184.948 293.395 185.132 292.324 185.116C291.827 185.026 291.357 184.851 290.943 184.6C290.529 184.35 290.18 184.031 289.916 183.662C289.653 183.292 289.481 182.881 289.412 182.454C289.342 182.026 289.377 181.591 289.513 181.175C289.951 180.307 290.625 179.54 291.481 178.936C296.8 174.458 302.236 170.089 307.789 165.829C308.706 164.941 309.941 164.333 311.304 164.097C312.565 164.098 313.784 164.48 314.744 165.175C315.703 165.869 316.34 166.832 316.541 167.889C316.541 169.8 314.643 170.517 313.026 171.591C308.07 175.234 303.079 179.175 297.983 182.967Z" fill="#3B2645"/>
<path d="M298.791 177.681C298.551 177.498 298.359 177.274 298.229 177.024C298.154 176.713 298.16 176.392 298.245 176.083C298.33 175.774 298.492 175.484 298.721 175.233C299.986 173.412 302.657 170.486 305.293 170.217C306.164 170.179 307.03 170.336 307.807 170.671C308.584 171.006 309.244 171.509 309.722 172.128C310.502 173.096 310.99 174.212 311.143 175.379C311.296 176.545 311.11 177.725 310.6 178.816C309.852 180.804 308.262 182.485 306.137 183.533C305.085 183.911 303.902 183.93 302.834 183.585C301.767 183.24 300.897 182.558 300.408 181.682C299.916 180.577 300.091 179.234 299.213 178.308L298.791 177.681Z" fill="#FFEDE5"/>
<path d="M223.752 284.656V287.642C223.752 289.642 223.752 291.702 223.752 293.822V296.24C223.752 298.689 223.541 301.226 223.4 303.824C214.3 305.956 204.93 307.149 195.493 307.377C195.107 304.033 194.333 295.136 194.298 294.15C194.298 292.12 193.771 286.388 193.736 285.611C193.525 281.252 193.384 276.893 193.384 272.624C193.384 267.071 193.63 261.637 194.123 256.591C194.123 256.233 194.123 255.905 194.123 255.576C194.123 255.248 190.221 236.468 187.093 214.464C186.742 216.793 186.39 219.122 186.039 221.361C183.086 240.29 179.958 255.576 179.958 255.576C180.485 260.891 180.731 266.653 180.731 272.564C180.731 277.073 180.731 281.521 180.345 286.238C180.345 287.015 179.642 296.987 179.536 297.942C179.29 301.137 178.974 304.272 178.658 307.287C173.737 307.108 168.887 306.839 164.072 306.481C160.276 306.212 155.496 306.033 150.856 305.466C150.645 302.779 150.505 300.211 150.399 297.703C150.399 297.076 150.399 296.449 150.399 295.822C150.399 293.076 150.399 290.478 150.399 287.97V286C150.399 267.907 152.473 255.994 152.157 253.158C144.811 190.46 155.074 155.886 155.074 155.886C156.676 150.862 159.569 146.203 163.544 142.242C166.557 142.638 169.514 143.299 172.366 144.212C176.712 145.177 181.198 145.609 185.687 145.496H188.921C192.822 145.496 196.723 145.108 200.59 145.018H203.191C206.897 144.972 210.598 145.272 214.227 145.914C216.396 149.081 218.073 152.473 219.218 156.006C222.057 167.275 223.727 178.734 224.209 190.251C225.399 211.274 224.706 232.343 222.135 253.277C221.713 255.934 223.576 267.31 223.752 284.656Z" fill="#3B2645"/>
<path d="M173.983 339.503C174.475 354.938 172.753 365.089 170.081 371.21C166.004 380.674 159.537 380.555 156.022 375.449C155.073 374.033 154.419 372.487 154.089 370.881C151.524 360.223 156.022 341.622 156.022 341.622C156.042 341.394 156.042 341.164 156.022 340.936C157.771 342.019 159.754 342.8 161.857 343.235C164.217 343.727 166.701 343.557 168.938 342.749C171.174 341.942 173.043 340.541 174.264 338.756L173.983 339.503Z" fill="#AB8DA8"/>
<path d="M219.885 370.046C219.585 371.943 218.87 373.776 217.776 375.45C213.98 380.704 207.443 380.674 203.401 370.493C200.94 364.522 199.359 354.58 199.886 340.01C202.518 342.019 205.909 343.163 209.446 343.235C212.602 342.988 215.6 341.949 218.057 340.249C218.122 340.715 218.122 341.186 218.057 341.652C218.057 341.652 222.064 359.268 219.885 370.046Z" fill="#AB8DA8"/>
<path d="M168.675 348.669C166.895 347.767 164.861 347.29 162.788 347.29C160.715 347.29 158.681 347.767 156.901 348.669C156.835 348.731 156.791 348.807 156.774 348.89C156.756 348.972 156.766 349.057 156.803 349.135C156.84 349.212 156.901 349.28 156.981 349.329C157.06 349.379 157.154 349.409 157.252 349.415C159.01 349.415 160.767 348.788 162.419 348.818C164.353 348.957 166.262 349.278 168.113 349.773C168.271 349.79 168.432 349.763 168.57 349.695C168.709 349.628 168.818 349.524 168.881 349.4C168.945 349.275 168.959 349.137 168.922 349.005C168.885 348.873 168.798 348.755 168.675 348.669Z" fill="#291B30"/>
<path d="M168.113 353.445C165.111 351.959 161.589 351.42 158.166 351.922C157.006 351.922 156.971 353.564 158.166 353.475C159.82 353.34 161.487 353.4 163.122 353.654C164.633 353.893 166.004 354.43 167.515 354.699C167.701 354.733 167.895 354.71 168.063 354.634C168.231 354.559 168.362 354.435 168.434 354.285C168.505 354.135 168.512 353.969 168.453 353.815C168.395 353.662 168.274 353.531 168.113 353.445Z" fill="#291B30"/>
<path d="M214.648 348.669C211.976 347.893 206.177 347.594 204.103 349.684C203.822 349.953 204.103 350.52 204.49 350.49C206.142 350.311 207.583 349.744 209.305 349.684C211.027 349.624 212.82 350.013 214.437 349.923C214.534 349.935 214.632 349.93 214.727 349.909C214.822 349.889 214.911 349.853 214.99 349.803C215.068 349.753 215.134 349.69 215.184 349.619C215.234 349.547 215.266 349.468 215.28 349.386C215.294 349.303 215.289 349.219 215.264 349.139C215.24 349.058 215.197 348.982 215.139 348.916C215.08 348.849 215.006 348.793 214.922 348.751C214.838 348.709 214.745 348.681 214.648 348.669Z" fill="#291B30"/>
<path d="M215.949 353.714C213.032 352.609 205.757 351.803 204.28 355.147C204.07 355.595 204.737 355.953 205.159 355.744C206.678 355.025 208.37 354.61 210.106 354.533C211.843 354.455 213.577 354.716 215.176 355.296C216.23 355.654 217.039 354.102 215.949 353.714Z" fill="#291B30"/>
<path d="M82.881 68.348C82.881 68.1689 82.4593 68.1689 82.4241 68.348C80.6668 78.529 81.6861 89.2474 81.6861 99.6672C81.6861 110.684 81.2643 121.791 82.0375 132.778C82.0708 132.895 82.1495 133 82.2611 133.074C82.3727 133.149 82.5106 133.189 82.6526 133.189C82.7946 133.189 82.9325 133.149 83.0441 133.074C83.1557 133 83.2344 132.895 83.2677 132.778C84.0058 121.791 83.584 110.684 83.584 99.6672C83.584 89.4862 84.6033 78.6186 82.881 68.348Z" fill="#F7F8F8"/>
<path d="M98.2407 71.8115C98.2033 71.6649 98.1079 71.5336 97.9704 71.4394C97.833 71.3452 97.6617 71.2939 97.4851 71.2939C97.3085 71.2939 97.1372 71.3452 96.9997 71.4394C96.8622 71.5336 96.7668 71.6649 96.7294 71.8115C96.7294 81.6043 95.9913 91.5763 96.7294 101.339C96.7294 101.506 96.8072 101.665 96.9456 101.783C97.084 101.9 97.2717 101.966 97.4675 101.966C97.6633 101.966 97.851 101.9 97.9894 101.783C98.1278 101.665 98.2056 101.506 98.2056 101.339C99.014 91.5763 98.311 81.6043 98.2407 71.8115Z" fill="#F7F8F8"/>
<path d="M255.383 174.338C255.355 174.249 255.293 174.171 255.207 174.116C255.121 174.06 255.016 174.03 254.909 174.03C254.801 174.03 254.696 174.06 254.61 174.116C254.525 174.171 254.463 174.249 254.434 174.338C253.444 187.158 253.245 200.014 253.837 212.852C253.837 225.69 253.837 238.499 254.399 251.337C254.429 251.432 254.495 251.517 254.587 251.577C254.679 251.637 254.792 251.67 254.909 251.67C255.025 251.67 255.138 251.637 255.23 251.577C255.322 251.517 255.388 251.432 255.418 251.337C255.91 238.499 255.91 225.69 255.981 212.852C256.555 200.014 256.355 187.159 255.383 174.338Z" fill="#F7F8F8"/>
<path d="M282.483 99.2496C282.373 90.7066 281.716 82.175 280.515 73.6927C280.515 73.1851 279.566 73.3344 279.531 73.6927C279.259 82.8664 279.576 92.0458 280.48 101.19C280.936 109.699 280.831 118.417 282.167 126.837C282.167 127.613 283.713 127.374 283.748 126.658C284.24 117.552 283.116 108.266 282.483 99.2496Z" fill="#F7F8F8"/>
<path d="M289.512 103.996C289.487 103.93 289.438 103.871 289.372 103.83C289.305 103.788 289.225 103.766 289.143 103.766C289.06 103.766 288.98 103.788 288.914 103.83C288.847 103.871 288.798 103.93 288.774 103.996C287.842 116.263 287.772 128.566 288.563 140.839C288.541 140.914 288.539 140.992 288.558 141.067C288.577 141.143 288.616 141.213 288.672 141.274C288.728 141.335 288.799 141.384 288.881 141.418C288.962 141.451 289.052 141.469 289.143 141.469C289.233 141.469 289.323 141.451 289.404 141.418C289.486 141.384 289.557 141.335 289.613 141.274C289.669 141.213 289.708 141.143 289.727 141.067C289.746 140.992 289.744 140.914 289.723 140.839C290.513 128.566 290.443 116.263 289.512 103.996Z" fill="#F7F8F8"/>
<path d="M185.863 221.332C185.916 219.007 186.27 216.694 186.917 214.435C186.566 216.764 186.214 219.093 185.863 221.332Z" fill="#291B30"/>
<path d="M224.103 190.252C219.358 166.038 180.169 164.904 180.169 164.904C177.744 154.932 193.56 151.946 193.56 151.946L202.804 145.169C206.51 145.122 210.211 145.422 213.84 146.064C216.13 149.168 217.937 152.51 219.218 156.007C221.999 167.282 223.634 178.739 224.103 190.252Z" fill="#291B30"/>
<path d="M219.779 158.604C188.146 171.233 153.772 159.649 153.772 159.649C156.268 153.677 154.405 123.224 154.229 117.432C154.229 117.432 154.229 117.223 154.229 117.133C154.244 116.915 154.244 116.695 154.229 116.476C160.872 103.399 161.61 78.2008 161.645 69.5424C164.633 69.1543 167.761 68.9453 170.467 68.8259C171.522 78.4993 175.283 103.31 185.756 102.235C196.23 101.16 201.221 79.0666 203.049 69.3932C204.976 69.6677 206.93 69.7778 208.883 69.7216C209.481 69.7216 210.078 69.7216 210.676 69.7216C209.762 82.9479 218.408 110.744 218.654 111.52C218.654 111.729 218.654 111.968 218.654 112.177C218.654 112.894 218.408 113.64 218.303 114.446C218.303 114.446 218.303 114.775 218.303 114.954C216.089 131.793 219.779 158.604 219.779 158.604Z" fill="#AB8DA8"/>
</g>
<defs>
<linearGradient id="paint0_linear_698_3702" x1="375" y1="405.866" x2="-125.641" y2="373.062" gradientUnits="userSpaceOnUse">
<stop stop-color="#92A3FD"/>
<stop offset="1" stop-color="#9DCEFF"/>
</linearGradient>
<clipPath id="clip0_698_3702">
<rect width="375" height="406" fill="white"/>
</clipPath>
</defs>
</svg>
