<svg width="375" height="351" viewBox="0 0 375 351" fill="none" xmlns="http://www.w3.org/2000/svg">
<path fill-rule="evenodd" clip-rule="evenodd" d="M186.418 337.733C168.057 334.451 152.191 323.255 133.64 321.323C104.431 318.283 61.6928 348.531 46.667 323.185C30.2989 295.575 89.2261 266.471 82.4976 235.055C75.9011 204.254 18.2844 202.988 14.2336 171.747C10.8809 145.889 44.3622 128.313 67.0038 115.561C87.2949 104.133 111.654 104.26 134.911 103.782C152.574 103.419 169.117 116.701 186.418 113.106C209.893 108.227 225.354 79.7067 249.324 80.0023C272.009 80.282 306.755 91.8041 307.04 114.593C307.461 148.173 238.678 165.165 250.784 196.469C265.667 234.956 339.169 215.256 359.781 250.977C373.031 273.939 342.4 303.001 321.953 319.808C302.064 336.155 274.567 338.591 249.089 341.961C228.067 344.742 207.293 341.465 186.418 337.733Z" fill="url(#paint0_linear_255_4390)"/>
<path d="M147.181 180.128C147.001 183.695 146.539 187.827 145.872 192.395C144.666 200.453 142.818 209.64 140.739 218.57C136.172 239.048 130.731 257.935 130.731 257.935C130.266 269.998 128.885 282.008 126.6 293.862C126.369 295.171 126.138 296.428 125.881 297.711C125.111 301.843 124.29 305.821 123.52 309.49C120.672 322.526 118.08 331.944 118.08 331.944L105.583 329.789C104.992 322.706 104.761 315.931 104.787 309.593C104.787 305.641 104.787 301.894 105.044 298.25C105.044 296.351 105.249 294.504 105.377 292.733C106.84 271.126 110.51 256.806 110.51 253.958C110.51 239.51 111.459 226.91 112.614 216.158C115.847 186.518 121.57 171.07 121.57 171.07C129.654 152.49 141.766 153.774 145.769 167.451C146.927 171.572 147.403 175.854 147.181 180.128V180.128Z" fill="#FFEDE5"/>
<path d="M186.93 313.545C186.93 318.677 186.622 324.092 186.161 329.686L173.663 332.073C173.663 332.073 171.456 323.989 168.864 312.39C167.915 308.13 166.914 303.408 165.965 298.43C165.708 297.019 165.426 295.556 165.169 294.119C162.871 282.18 161.481 270.084 161.012 257.935C161.012 257.935 155.52 238.869 150.901 218.288C148.899 209.46 147.052 200.324 145.769 192.343C145.076 187.801 144.639 183.618 144.46 180.077C144.185 175.757 144.628 171.422 145.769 167.246C149.823 153.568 161.91 152.311 169.993 170.864C169.993 170.864 175.69 186.262 178.898 215.721C180.252 228.354 180.963 241.048 181.028 253.752C181.028 256.601 184.723 270.638 186.161 291.937C186.161 293.734 186.391 295.556 186.494 297.429C186.905 302.536 187.007 307.874 186.93 313.545Z" fill="#FFEDE5"/>
<path d="M186.34 292.04C179.316 293.104 172.241 293.798 165.144 294.119C162.854 282.179 161.473 270.084 161.012 257.935C161.012 257.935 155.52 238.869 150.901 218.288C148.9 209.46 147.052 200.324 145.769 192.343C144.563 200.401 142.715 209.588 140.636 218.519C136.171 239.048 130.731 257.935 130.731 257.935C130.265 269.998 128.884 282.008 126.599 293.862C118.901 293.503 111.536 293.015 105.377 292.502C106.84 270.895 110.509 256.575 110.509 253.727C110.509 239.279 111.459 226.679 112.614 215.927C115.847 186.287 121.57 170.839 121.57 170.839C129.653 152.259 141.766 153.543 145.769 167.22C148.848 156.776 156.624 153.568 163.732 160.908C166.385 163.825 168.505 167.187 169.994 170.839C171.59 175.557 172.91 180.363 173.946 185.235C176.209 195.327 177.896 205.54 179.001 215.824C180.355 228.457 181.066 241.15 181.131 253.855C181.157 256.704 184.826 270.766 186.34 292.04Z" fill="#AB8DA8"/>
<path d="M174.048 185.363C167.017 177.69 136.197 175.817 136.197 175.817L163.835 161.164C166.488 164.082 168.608 167.444 170.096 171.095C171.688 175.771 173.007 180.535 174.048 185.363V185.363Z" fill="#826B80"/>
<path d="M119.722 344.673C119.736 344.801 119.736 344.93 119.722 345.058C119.311 350.832 114.59 349.959 107.609 350.19C102.041 350.19 99.064 347.085 99.3976 343.723C99.507 342.705 99.8783 341.733 100.475 340.9C102.065 338.417 103.227 335.684 103.914 332.817C104.216 331.519 104.949 330.361 105.993 329.532C110.381 325.991 114.589 328.711 116.694 330.661C117.634 331.501 118.289 332.614 118.567 333.843C119.358 337.398 119.745 341.031 119.722 344.673V344.673Z" fill="#3B2645"/>
<path d="M184.21 350.062C177.051 350.062 172.175 350.883 172.047 344.673V344.134C172.033 340.731 172.412 337.339 173.176 334.023C173.471 332.615 174.208 331.338 175.28 330.379C176.485 328.994 178.146 328.086 179.962 327.817C181.779 327.549 183.631 327.939 185.185 328.916C186.572 329.874 187.558 331.308 187.957 332.945C188.651 335.682 189.796 338.283 191.344 340.644C191.68 341.127 191.947 341.654 192.14 342.209C193.372 346.11 190.472 350.164 184.21 350.062Z" fill="#3B2645"/>
<path d="M158.754 80.8679C159.438 80.0691 159.875 79.0882 160.011 78.0451C160.084 76.3861 160.386 74.7452 160.909 73.1693C161.371 72.4717 161.75 71.7224 162.038 70.9367C162.133 70.5188 162.122 70.0838 162.005 69.6714C161.889 69.259 161.671 68.8823 161.371 68.5758C160.935 68.1396 160.319 67.8316 160.114 67.2414C160.062 66.8668 160.062 66.4868 160.114 66.1123C160.034 65.5573 159.816 65.0312 159.48 64.5827C159.144 64.1341 158.7 63.7776 158.189 63.5461C157.143 63.0354 156.028 62.6809 154.879 62.4939C153.748 62.3534 152.667 61.949 151.722 61.3135C151.334 60.9509 150.913 60.6245 150.465 60.3383C149.614 59.9737 148.666 59.9015 147.77 60.133C146.068 60.4281 144.406 60.9189 142.817 61.5958C142.244 61.8965 141.631 62.1126 140.995 62.2373C140.046 62.2373 139.045 62.0577 138.096 62.2373C137.384 62.4642 136.731 62.8434 136.182 63.3487C135.632 63.854 135.199 64.4731 134.914 65.1628C134.741 65.5604 134.477 65.912 134.144 66.1893C133.724 66.4029 133.274 66.5501 132.809 66.6255C132.222 66.8563 131.7 67.2271 131.288 67.7057C130.877 68.1842 130.589 68.756 130.448 69.3713C130.206 70.643 130.206 71.949 130.448 73.2206C130.495 74.4778 130.632 75.7299 130.859 76.9673C133.425 87.2321 134.169 84.3836 134.169 84.3836L141.868 83.5881C145.358 83.2031 148.822 82.7925 152.287 82.305C153.672 82.0997 155.058 81.8174 156.444 81.5864C157.276 81.6393 158.098 81.3835 158.754 80.8679V80.8679Z" fill="#3B2645"/>
<path d="M133.451 79.9184C133.196 79.5685 132.863 79.2838 132.477 79.0875C132.091 78.8911 131.664 78.7888 131.231 78.7888C130.799 78.7888 130.372 78.8911 129.986 79.0875C129.6 79.2838 129.266 79.5685 129.012 79.9184C126.882 82.6642 130.808 87.617 133.708 87.771C133.78 85.1507 133.695 82.5284 133.451 79.9184V79.9184Z" fill="#E0855C"/>
<path d="M175.768 109.558C172.968 116.805 170.712 124.25 169.019 131.832C168.813 132.808 168.659 133.757 168.48 134.681C168.3 135.605 168.223 136.298 168.12 137.042C168.018 137.786 168.12 138.094 167.915 138.813C167.12 146.511 165.631 167.888 165.349 171.532C165.349 171.891 165.349 172.07 165.349 172.07C145.41 178.204 124.29 173.328 124.29 173.328L124.136 172.199C123.674 168.657 119.363 130.78 119.209 129.266C118.311 120.259 117.669 111.97 117.618 106.812C117.618 106.042 118.285 105.606 119.286 105.324C120.902 104.862 123.186 104.785 124.983 104.477C128.328 103.918 131.705 103.566 135.093 103.425H135.915C136.086 103.415 136.257 103.415 136.428 103.425H137.044L137.685 93.1599H138.686C139.34 93.2612 140.001 93.3127 140.662 93.3139C141.451 93.3252 142.24 93.2823 143.023 93.1856L144.126 93.0573C144.665 93.0573 145.153 92.8776 145.641 92.7493C146.427 92.5679 147.199 92.3277 147.95 92.0308C148.181 91.981 148.405 91.9035 148.617 91.7998H148.823L149.336 91.5689C150.278 91.1598 151.187 90.6794 152.056 90.1318L153.262 89.3106L153.467 89.131C153.631 89.0239 153.785 88.9038 153.929 88.7717L154.212 88.5408C154.212 88.9257 154.212 89.0797 154.212 89.2336C153.988 91.2277 153.868 93.232 153.852 95.2385C153.852 96.7013 153.852 98.164 153.852 99.4471C153.852 101.628 153.852 103.219 153.852 103.219H155.289C155.316 103.201 155.347 103.191 155.379 103.191C155.411 103.191 155.443 103.201 155.469 103.219C157.549 103.248 159.625 103.428 161.679 103.758C165.582 104.271 169.419 105.2 173.124 106.53C173.689 106.761 174.1 106.966 174.459 107.146C174.818 107.325 175.947 109.096 175.768 109.558Z" fill="#FFEDE5"/>
<path d="M154.314 88.5665C154.023 90.4138 153.326 92.1735 152.274 93.719C151.221 95.2646 149.838 96.5575 148.226 97.5048C146.614 98.4521 144.811 99.0302 142.949 99.1974C141.086 99.3647 139.21 99.1169 137.455 98.472L137.788 93.16C140.711 93.6194 143.699 93.4471 146.549 92.6547C149.4 91.8624 152.048 90.4683 154.314 88.5665Z" fill="#E0855C"/>
<path d="M133.733 72.1942C132.296 73.7852 132.271 77.3266 132.271 81.0475C132.271 92.5698 135.812 96.0598 141.714 96.4447C147.616 96.8296 153.724 94.4431 154.545 83.6137C155.033 78.2504 155.546 73.349 153.544 71.0394C150.644 67.883 138.096 67.3441 133.733 72.1942Z" fill="#FFEDE5"/>
<path d="M153.801 82.2793C153.801 82.2793 155.443 77.4548 158.369 79.8927C161.294 82.3306 157.573 89.6699 153.236 89.2593C153.211 89.2593 152.466 83.9473 153.801 82.2793Z" fill="#FFEDE5"/>
<path d="M157.111 82.0996C156.451 82.3339 155.866 82.7416 155.418 83.2801C154.894 83.7429 154.474 84.3114 154.186 84.9481C154.186 85.1277 154.391 85.2304 154.52 85.1277C154.648 85.0251 155.161 84.3322 155.495 83.973C155.723 84.244 156.014 84.4553 156.342 84.5888C156.4 84.6147 156.465 84.6202 156.526 84.6045C156.588 84.5888 156.642 84.5529 156.681 84.5024C156.719 84.452 156.74 84.39 156.739 84.3266C156.738 84.2631 156.715 84.2018 156.675 84.1526C156.497 83.8884 156.259 83.6689 155.982 83.511C156.454 83.1867 156.9 82.8263 157.317 82.4332C157.345 82.4002 157.363 82.359 157.366 82.3154C157.37 82.2719 157.359 82.2283 157.337 82.1911C157.314 82.1539 157.28 82.1249 157.239 82.1085C157.199 82.092 157.154 82.0889 157.111 82.0996V82.0996Z" fill="#E0855C"/>
<path d="M137.326 80.6112C137.326 80.6112 136.351 80.9962 136.428 79.2511C136.505 77.5061 137.249 77.8397 137.249 77.8397C137.249 77.8397 137.942 77.8397 137.865 79.1998C137.788 80.5599 137.326 80.6112 137.326 80.6112Z" fill="#3B2645"/>
<path d="M147.412 80.3033C147.412 80.3033 146.436 80.6882 146.539 78.9176C146.642 77.1469 147.335 77.5318 147.335 77.5318C147.335 77.5318 148.027 77.5318 147.976 78.8919C147.925 80.252 147.412 80.3033 147.412 80.3033Z" fill="#3B2645"/>
<path d="M142.048 85.1791C141.534 85.1791 140.38 85.4358 140.123 84.8969C140.192 83.6695 140.407 82.4547 140.764 81.2785C141.181 79.6972 141.515 78.0955 141.765 76.4797C141.765 76.4797 141.765 76.4797 141.586 76.4797C140.65 79.3353 139.946 82.2617 139.481 85.2305C139.469 85.2664 139.465 85.3049 139.471 85.3426C139.476 85.3802 139.491 85.4159 139.514 85.4464C139.537 85.4769 139.567 85.5013 139.602 85.5173C139.636 85.5334 139.674 85.5406 139.712 85.5384C140.457 85.5384 141.175 85.5384 141.919 85.5384C142.202 85.6154 142.253 85.2048 142.048 85.1791Z" fill="#E0855C"/>
<path d="M139.302 75.2992C138.687 75.2476 138.069 75.2476 137.455 75.2992C136.823 75.1509 136.178 75.0649 135.53 75.0426C135.456 75.0435 135.384 75.0656 135.322 75.1064C135.261 75.1472 135.212 75.2048 135.182 75.2725C135.152 75.3401 135.143 75.4149 135.154 75.4879C135.166 75.5609 135.198 75.6291 135.248 75.6842C135.844 76.1055 136.534 76.3769 137.257 76.4752C137.981 76.5734 138.718 76.4958 139.405 76.2487C139.512 76.2144 139.603 76.1442 139.665 76.0501C139.726 75.956 139.752 75.8437 139.74 75.7322C139.728 75.6206 139.678 75.5166 139.598 75.4378C139.519 75.3589 139.414 75.31 139.302 75.2992V75.2992Z" fill="#3B2645"/>
<path d="M150.131 73.9392C149.267 74.4243 148.317 74.738 147.334 74.863C146.693 74.863 145.923 74.7347 145.409 75.171C145.377 75.2207 145.36 75.2786 145.36 75.3378C145.36 75.3969 145.377 75.4548 145.409 75.5046C146.41 76.9673 149.695 75.248 150.542 74.2215C150.567 74.0418 150.311 73.8622 150.131 73.9392Z" fill="#3B2645"/>
<path d="M145.82 88.1815C144.739 88.0274 143.641 88.0274 142.561 88.1815C141.816 88.1815 140.764 88.0532 140.225 88.669C140.816 89.2079 141.816 88.977 142.561 88.9513C143.644 89.0542 144.736 89.0542 145.82 88.9513C145.922 88.9513 146.02 88.9108 146.092 88.8386C146.164 88.7664 146.205 88.6685 146.205 88.5664C146.205 88.4643 146.164 88.3664 146.092 88.2942C146.02 88.222 145.922 88.1815 145.82 88.1815V88.1815Z" fill="#E0855C"/>
<path d="M233.687 221.803H53.668C53.2256 221.803 52.8014 221.628 52.4886 221.315C52.1757 221.002 52 220.578 52 220.135C52 219.693 52.1757 219.269 52.4886 218.956C52.8014 218.643 53.2256 218.467 53.668 218.467H233.687C234.129 218.467 234.553 218.643 234.866 218.956C235.179 219.269 235.355 219.693 235.355 220.135C235.355 220.578 235.179 221.002 234.866 221.315C234.553 221.628 234.129 221.803 233.687 221.803V221.803Z" fill="#3B2645"/>
<path d="M59.3651 228.732C58.6096 228.732 57.8851 228.432 57.3509 227.898C56.8167 227.364 56.5166 226.639 56.5166 225.884V214.31C56.5166 213.555 56.8167 212.83 57.3509 212.296C57.8851 211.762 58.6096 211.462 59.3651 211.462C60.1205 211.462 60.8451 211.762 61.3793 212.296C61.9134 212.83 62.2136 213.555 62.2136 214.31V225.832C62.2239 226.212 62.1577 226.589 62.0189 226.942C61.8801 227.295 61.6715 227.617 61.4056 227.887C61.1397 228.158 60.8219 228.372 60.4713 228.518C60.1207 228.663 59.7445 228.736 59.3651 228.732V228.732Z" fill="#3B2645"/>
<path d="M65.0619 238.817C64.3064 238.817 63.5819 238.517 63.0477 237.983C62.5135 237.449 62.2134 236.724 62.2134 235.969V204.302C62.2809 203.59 62.6115 202.928 63.1407 202.447C63.6698 201.966 64.3594 201.699 65.0747 201.699C65.79 201.699 66.4796 201.966 67.0087 202.447C67.5379 202.928 67.8685 203.59 67.936 204.302V235.969C67.9292 236.727 67.6234 237.451 67.0852 237.985C66.5469 238.518 65.8197 238.817 65.0619 238.817V238.817Z" fill="#291B30"/>
<path d="M70.7844 243.59C70.4094 243.594 70.0374 243.522 69.6903 243.38C69.3431 243.239 69.0278 243.029 68.7626 242.764C68.4974 242.498 68.2877 242.183 68.1458 241.836C68.0038 241.489 67.9325 241.117 67.9359 240.742V200.478C67.9359 199.723 68.236 198.998 68.7702 198.464C69.3044 197.93 70.0289 197.63 70.7844 197.63C71.5398 197.63 72.2644 197.93 72.7986 198.464C73.3328 198.998 73.6329 199.723 73.6329 200.478V240.742C73.6329 241.497 73.3328 242.222 72.7986 242.756C72.2644 243.29 71.5398 243.59 70.7844 243.59Z" fill="#3B2645"/>
<path d="M225.5 228.732C226.256 228.732 226.98 228.432 227.514 227.898C228.049 227.364 228.349 226.639 228.349 225.884V214.31C228.349 213.555 228.049 212.83 227.514 212.296C226.98 211.762 226.256 211.462 225.5 211.462C224.745 211.462 224.02 211.762 223.486 212.296C222.952 212.83 222.652 213.555 222.652 214.31V225.832C222.645 226.211 222.714 226.587 222.854 226.938C222.994 227.29 223.203 227.61 223.468 227.88C223.733 228.15 224.049 228.364 224.398 228.51C224.747 228.657 225.122 228.732 225.5 228.732V228.732Z" fill="#3B2645"/>
<path d="M219.804 238.817C220.559 238.817 221.284 238.517 221.818 237.983C222.352 237.449 222.652 236.724 222.652 235.969V204.302C222.585 203.59 222.254 202.928 221.725 202.447C221.196 201.966 220.506 201.699 219.791 201.699C219.076 201.699 218.386 201.966 217.857 202.447C217.328 202.928 216.997 203.59 216.93 204.302V235.969C216.936 236.727 217.242 237.451 217.781 237.985C218.319 238.518 219.046 238.817 219.804 238.817V238.817Z" fill="#291B30"/>
<path d="M214.081 243.59C214.456 243.594 214.828 243.522 215.175 243.38C215.522 243.239 215.838 243.029 216.103 242.764C216.368 242.498 216.578 242.183 216.72 241.836C216.861 241.489 216.933 241.117 216.929 240.742V200.478C216.929 199.723 216.629 198.998 216.095 198.464C215.561 197.93 214.836 197.63 214.081 197.63C213.325 197.63 212.601 197.93 212.067 198.464C211.533 198.998 211.232 199.723 211.232 200.478V240.742C211.232 241.497 211.533 242.222 212.067 242.756C212.601 243.29 213.325 243.59 214.081 243.59V243.59Z" fill="#3B2645"/>
<path d="M128.755 126.187C127.703 129.852 126.249 133.389 124.418 136.734C123.674 138.274 120.671 144.792 120.543 145.048C115.872 155.288 109.277 170.402 108.687 172.199C107.224 177.998 104.094 211.744 104.068 211.744C100.86 216.568 94.7526 214.31 94.7526 214.31C94.7526 214.31 94.7526 213.284 94.4703 211.539C93.7774 204.071 92.1351 183.079 94.0341 170.659C94.573 167.22 96.6002 158.88 99.1664 149.462C101.219 141.764 102.118 134.45 104.555 126.957C106.609 120.509 109.704 114.441 113.717 108.993C115.22 107.278 117.191 106.039 119.388 105.426C120.338 105.426 120.748 106.658 121.544 107.017C123.804 108.073 125.621 109.89 126.676 112.15C128.912 116.467 129.644 121.407 128.755 126.187V126.187Z" fill="#FFEDE5"/>
<path d="M94.137 217.774C94.137 216.645 94.3679 215.49 94.3936 214.361C94.3936 212.591 94.3936 211.436 94.3936 211.436C95.4912 210.37 96.8919 209.669 98.4034 209.43C99.9149 209.191 101.463 209.426 102.836 210.101C103.454 210.553 104.022 211.069 104.53 211.641C105.557 212.616 106.737 213.386 107.712 214.413C108.22 214.902 108.608 215.501 108.848 216.164C109.089 216.827 109.174 217.535 109.098 218.236C107.881 218.37 106.753 218.935 105.916 219.827C104.966 221.008 105.377 222.086 104.915 223.394C104.453 224.703 103.324 224.831 102.349 224.985C99.0641 225.473 94.3679 225.627 94.0856 221.393C94.0139 220.187 94.0311 218.978 94.137 217.774V217.774Z" fill="#FFEDE5"/>
<path d="M196.861 211.359C196.707 213.104 196.579 214.13 196.579 214.13C196.579 214.13 190.471 216.466 187.238 211.564C187.238 211.564 184.107 177.921 182.542 172.122C182.285 171.147 180.284 166.399 177.769 160.651C175.254 154.903 167.17 137.324 166.914 136.734C165.072 133.395 163.617 129.856 162.577 126.187C161.603 121.344 162.3 116.315 164.553 111.919C165.622 109.669 167.435 107.856 169.685 106.787C170.48 106.388 171.364 106.202 172.251 106.248C172.532 106.247 172.811 106.299 173.073 106.402C173.548 106.533 173.999 106.741 174.407 107.017C175.035 107.456 175.62 107.955 176.152 108.506C180.753 113.408 184.153 119.311 186.083 125.751C188.649 133.449 190.164 141.738 192.114 149.154C194.68 158.572 196.682 166.912 197.246 170.351C199.197 182.9 197.529 203.891 196.861 211.359Z" fill="#FFEDE5"/>
<path d="M197.093 217.8C197.093 216.517 196.939 215.234 196.913 214.361C196.913 212.591 196.913 211.436 196.913 211.436C195.822 210.369 194.425 209.667 192.917 209.428C191.409 209.189 189.864 209.424 188.496 210.102C187.875 210.559 187.3 211.074 186.777 211.641C185.776 212.616 184.57 213.386 183.62 214.413C183.108 214.899 182.716 215.497 182.476 216.161C182.235 216.825 182.153 217.535 182.235 218.236C183.411 218.546 184.561 218.95 185.673 219.442C186.623 220.418 185.904 221.29 185.904 222.419C185.904 223.985 186.982 224.524 188.47 224.78L191.345 225.293C192.869 225.66 194.471 225.525 195.912 224.908C196.12 224.79 196.302 224.633 196.451 224.447C196.574 224.259 196.661 224.05 196.708 223.831C197.199 221.86 197.329 219.817 197.093 217.8Z" fill="#FFEDE5"/>
<path d="M169.018 131.833L170.455 171.994C146.744 181.258 121.107 172.609 121.107 172.609L120.543 134.117L119.773 133.886C118.618 133.526 117.386 133.141 116.129 132.628C115.41 132.346 114.666 132.064 113.922 131.704C110.711 130.237 107.584 128.592 104.555 126.777C106.609 120.33 109.704 114.262 113.717 108.814C115.227 107.107 117.195 105.869 119.388 105.247C121.005 104.811 123.289 104.708 125.085 104.4C128.43 103.841 131.807 103.489 135.196 103.348L144.511 126.444C148.5 118.916 152.005 111.141 155.007 103.168H155.263C155.29 103.149 155.321 103.139 155.353 103.139C155.385 103.139 155.417 103.149 155.443 103.168C157.524 103.196 159.599 103.376 161.653 103.707C165.566 104.238 169.412 105.184 173.124 106.53C173.599 106.661 174.05 106.869 174.459 107.146C175.087 107.585 175.671 108.083 176.204 108.634C180.804 113.536 184.204 119.439 186.135 125.879C183.047 127.295 179.886 128.545 176.666 129.626C172.406 130.96 169.018 131.833 169.018 131.833Z" fill="#3B2645"/>
<path d="M120.543 120.849V134.116L119.773 133.886C118.618 133.526 117.387 133.141 116.129 132.628C117.802 128.78 119.275 124.849 120.543 120.849V120.849Z" fill="#27192E"/>
<path d="M113.999 335.819C111.972 334.69 108.174 333.818 106.301 335.383C106.265 335.446 106.246 335.516 106.246 335.588C106.246 335.661 106.265 335.731 106.301 335.794V335.948C106.301 336.153 106.583 336.204 106.737 336.127C106.891 336.05 106.737 336.127 106.917 336.127C107.356 335.848 107.86 335.689 108.379 335.665C109.043 335.635 109.708 335.695 110.355 335.845C111.559 336.2 112.799 336.415 114.051 336.487C114.139 336.48 114.221 336.438 114.279 336.371C114.337 336.303 114.366 336.216 114.359 336.127C114.352 336.039 114.31 335.957 114.243 335.899C114.175 335.841 114.088 335.813 113.999 335.819Z" fill="#27192E"/>
<path d="M115.308 339.438C114.161 338.508 112.73 338.001 111.254 338.001C109.792 337.651 108.255 337.804 106.891 338.437C106.711 338.591 106.609 338.976 106.891 339.104C108.089 339.412 109.325 339.542 110.561 339.489C112.036 339.897 113.55 340.146 115.077 340.233C115.162 340.218 115.241 340.18 115.305 340.122C115.369 340.064 115.416 339.99 115.44 339.907C115.464 339.825 115.464 339.737 115.441 339.654C115.418 339.571 115.372 339.496 115.308 339.438V339.438Z" fill="#27192E"/>
<path d="M184.39 334.434C183.011 333.675 181.434 333.357 179.869 333.522C178.305 333.687 176.828 334.328 175.639 335.358C175.382 335.691 175.639 336.333 176.024 336.281C177.333 336.281 178.59 335.511 179.873 335.383C181.156 335.255 182.568 335.742 183.902 335.588C184.415 335.537 184.877 334.921 184.39 334.434Z" fill="#27192E"/>
<path d="M185.468 337.795C183.788 337.395 182.049 337.3 180.336 337.513C179.73 337.435 179.116 337.486 178.532 337.663C177.948 337.84 177.408 338.139 176.948 338.54C176.589 339.001 176.948 339.874 177.59 339.643C180.156 338.745 183.056 340.079 185.596 339.155C185.735 339.095 185.852 338.992 185.929 338.862C186.006 338.731 186.04 338.58 186.025 338.429C186.011 338.278 185.95 338.135 185.849 338.022C185.749 337.908 185.616 337.829 185.468 337.795V337.795Z" fill="#27192E"/>
<path d="M96.9084 86.6676C88.2604 88.2586 79.2787 86.9242 70.8616 90.1576C70.297 90.3886 70.3227 91.3381 71.0155 91.2867C76.1479 91.0045 81.152 89.978 86.2587 89.67C89.9541 89.4391 94.2909 90.2346 97.6526 88.4126C98.6278 87.848 97.9093 86.4879 96.9084 86.6676Z" fill="#F7F8F8"/>
<path d="M100.039 74.6321C95.8218 72.4593 91.467 70.5648 87.0026 68.9608C86.2327 68.7041 85.7965 69.8589 86.4637 70.2695C90.4941 72.5927 94.6586 74.6749 98.9354 76.5054C100.193 77.0443 101.322 75.2479 100.039 74.6321Z" fill="#F7F8F8"/>
<defs>
<linearGradient id="paint0_linear_255_4390" x1="14" y1="80" x2="477.048" y2="127.548" gradientUnits="userSpaceOnUse">
<stop stop-color="#92A3FD"/>
<stop offset="1" stop-color="#9DCEFF"/>
</linearGradient>
</defs>
</svg>
